<svg width="16" height="16" viewBox="0 0 45 48" fill="none" xmlns="http://www.w3.org/2000/svg">
<path fill-rule="evenodd" clip-rule="evenodd" d="M39.2522 24C41.83 21.3192 43.5936 18.6663 44.2157 16.3379C44.6457 14.731 44.5229 13.3347 43.8557 12.1791C42.7229 10.2204 40.1564 9.18448 36.4343 9.18448C34.6872 9.18448 32.7679 9.41732 30.7536 9.85075C28.9036 4.05207 25.9236 0.358215 22.5 0.358215C19.0764 0.358215 16.0964 4.05207 14.2493 9.84789C12.235 9.41445 10.3179 9.18162 8.56858 9.18162C4.84358 9.18162 2.27716 10.2176 1.14644 12.1762C0.480013 13.329 0.360013 14.7288 0.787156 16.3351C1.4093 18.6663 3.17001 21.3192 5.74787 24C3.17001 26.6808 1.40644 29.3366 0.784299 31.6621C0.354299 33.269 0.477156 34.6682 1.1443 35.8209C2.27716 37.7796 4.84358 38.8155 8.56573 38.8155C10.3129 38.8155 12.2322 38.5827 14.2464 38.1521C16.0964 43.9479 19.0764 47.6418 22.5 47.6418C25.9236 47.6418 28.9036 43.9479 30.7507 38.1521C32.765 38.5856 34.685 38.8184 36.4314 38.8184C40.1536 38.8184 42.7207 37.7825 43.8536 35.8238C44.52 34.6711 44.64 33.2712 44.2129 31.665C43.5907 29.3366 41.83 26.6808 39.2522 24ZM36.4314 10.2562C39.7043 10.2562 42.0114 11.1296 42.9272 12.7164C43.4457 13.6148 43.5293 14.7367 43.1779 16.0578C42.6086 18.1906 40.9372 20.6866 38.4907 23.2306C36.7636 21.537 34.7236 19.8441 32.4357 18.2264C32.1572 15.5599 31.685 13.0832 31.0572 10.8781C32.9657 10.4719 34.7793 10.2562 36.4314 10.2562ZM27.0843 31.925C25.58 32.7926 24.0429 33.5735 22.5 34.2648C20.9572 33.5735 19.42 32.7926 17.9157 31.925C16.4064 31.0553 14.9579 30.1318 13.5907 29.1797C13.4236 27.509 13.3343 25.7767 13.3343 24C13.3343 22.2233 13.4264 20.4881 13.5907 18.8203C14.9579 17.8682 16.4036 16.9447 17.9157 16.075C19.42 15.2074 20.9572 14.4265 22.4972 13.7352C24.04 14.4265 25.5779 15.2074 27.0814 16.075C28.5907 16.9447 30.0393 17.8682 31.4036 18.8203C31.5707 20.491 31.66 22.2254 31.66 24C31.66 25.7767 31.5679 27.509 31.4036 29.1797C30.0393 30.1318 28.5936 31.0524 27.0843 31.925ZM31.2472 30.5903C30.9572 32.8492 30.5193 34.9648 29.9693 36.8733C27.98 36.3833 25.9072 35.6977 23.825 34.8358C25.1036 34.234 26.37 33.5735 27.6143 32.8542C28.8786 32.1299 30.0864 31.3684 31.2472 30.5903ZM21.175 34.8358C19.0929 35.6977 17.02 36.3833 15.0307 36.8733C14.4807 34.9619 14.0429 32.8492 13.7529 30.5875C14.9136 31.3655 16.1214 32.1271 17.3857 32.8542C18.6272 33.5735 19.8964 34.234 21.175 34.8358ZM12.4329 28.3487C10.505 26.933 8.7643 25.4636 7.27144 24C8.76644 22.5335 10.5079 21.0641 12.4357 19.6485C12.3272 21.0562 12.2686 22.5084 12.2686 24C12.2657 25.4916 12.3243 26.9438 12.4329 28.3487ZM13.7529 17.4097C14.0429 15.1508 14.4807 13.0352 15.0307 11.1267C17.02 11.6167 19.0929 12.3023 21.175 13.1642C19.8964 13.766 18.63 14.4265 17.3857 15.1458C16.1214 15.8701 14.9136 16.6316 13.7529 17.4097ZM23.8279 13.1642C25.9093 12.3052 27.9829 11.6167 29.9722 11.1267C30.5214 13.0352 30.96 15.1508 31.25 17.4097C30.0893 16.6316 28.8814 15.8701 27.62 15.1429C26.3729 14.4265 25.1036 13.7631 23.8279 13.1642ZM32.5672 19.6485C34.495 21.0641 36.2357 22.5335 37.7314 24C36.2357 25.4665 34.495 26.9359 32.5672 28.3515C32.6757 26.9438 32.7343 25.4916 32.7343 24.0029C32.7343 22.5084 32.6757 21.0562 32.5672 19.6485ZM22.5 1.43284C25.36 1.43284 27.9607 4.8609 29.6572 10.1001C27.3379 10.6732 24.9164 11.5071 22.5 12.5624C20.0836 11.5071 17.6622 10.6732 15.3429 10.1001C17.0393 4.8609 19.64 1.43284 22.5 1.43284ZM2.07001 12.7164C2.98858 11.1296 5.29287 10.2562 8.56573 10.2562C10.2179 10.2562 12.0314 10.469 13.9372 10.8752C13.3093 13.0832 12.8379 15.557 12.5586 18.2264C10.2707 19.8441 8.22858 21.537 6.50358 23.2306C4.05716 20.6866 2.38573 18.1934 1.81644 16.0578C1.46787 14.7396 1.55144 13.6148 2.07001 12.7164ZM8.56858 37.7438C5.29573 37.7438 2.98858 36.8705 2.07287 35.2836C1.5543 34.3852 1.47073 33.2604 1.82216 31.9422C2.39144 29.8094 4.06287 27.3134 6.5093 24.7694C8.23358 26.4631 10.2764 28.1559 12.5643 29.7736C12.8429 32.4401 13.315 34.9168 13.9429 37.1248C12.0343 37.5281 10.2207 37.7438 8.56858 37.7438ZM22.5 46.5672C19.64 46.5672 17.0393 43.1391 15.3429 37.8999C17.6622 37.3268 20.0836 36.4929 22.5 35.4376C24.9164 36.4929 27.3379 37.3268 29.6572 37.8999C27.9607 43.1391 25.36 46.5672 22.5 46.5672ZM42.93 35.2836C42.0114 36.8705 39.7072 37.7438 36.4343 37.7438C34.7822 37.7438 32.9686 37.531 31.06 37.1248C31.6879 34.9168 32.1593 32.4401 32.4386 29.7736C34.7264 28.1559 36.7693 26.4631 38.4936 24.7694C40.94 27.3106 42.6114 29.8066 43.1807 31.9394C43.5322 33.2604 43.4486 34.3852 42.93 35.2836Z" fill="black"/>
<path fill-rule="evenodd" clip-rule="evenodd" d="M22.5 27.5176C20.5579 27.5176 18.9786 25.9393 18.9786 24C18.9786 22.0607 20.5579 20.4824 22.5 20.4824C24.4421 20.4824 26.0186 22.0607 26.0186 24C26.0186 25.9393 24.4421 27.5176 22.5 27.5176ZM22.5 21.557C21.1493 21.557 20.05 22.6539 20.05 24C20.05 25.349 21.1493 26.443 22.5 26.443C23.8507 26.443 24.9471 25.3462 24.9471 24C24.9471 22.651 23.8507 21.557 22.5 21.557Z" fill="black"/>
</svg>
