<svg width="163" height="48" viewBox="0 0 163 48" fill="none" xmlns="http://www.w3.org/2000/svg">
<path fill-rule="evenodd" clip-rule="evenodd" d="M39.2522 24C41.83 21.3192 43.5936 18.6663 44.2157 16.3379C44.6457 14.731 44.5229 13.3347 43.8557 12.1791C42.7229 10.2204 40.1564 9.18448 36.4343 9.18448C34.6872 9.18448 32.7679 9.41732 30.7536 9.85075C28.9036 4.05207 25.9236 0.358215 22.5 0.358215C19.0764 0.358215 16.0964 4.05207 14.2493 9.84789C12.235 9.41445 10.3179 9.18162 8.56858 9.18162C4.84358 9.18162 2.27716 10.2176 1.14644 12.1762C0.480013 13.329 0.360013 14.7288 0.787156 16.3351C1.4093 18.6663 3.17001 21.3192 5.74787 24C3.17001 26.6808 1.40644 29.3366 0.784299 31.6621C0.354299 33.269 0.477156 34.6682 1.1443 35.8209C2.27716 37.7796 4.84358 38.8155 8.56573 38.8155C10.3129 38.8155 12.2322 38.5827 14.2464 38.1521C16.0964 43.9479 19.0764 47.6418 22.5 47.6418C25.9236 47.6418 28.9036 43.9479 30.7507 38.1521C32.765 38.5856 34.685 38.8184 36.4314 38.8184C40.1536 38.8184 42.7207 37.7825 43.8536 35.8238C44.52 34.6711 44.64 33.2712 44.2129 31.665C43.5907 29.3366 41.83 26.6808 39.2522 24ZM36.4314 10.2562C39.7043 10.2562 42.0114 11.1296 42.9272 12.7164C43.4457 13.6148 43.5293 14.7367 43.1779 16.0578C42.6086 18.1906 40.9372 20.6866 38.4907 23.2306C36.7636 21.537 34.7236 19.8441 32.4357 18.2264C32.1572 15.5599 31.685 13.0832 31.0572 10.8781C32.9657 10.4719 34.7793 10.2562 36.4314 10.2562ZM27.0843 31.925C25.58 32.7926 24.0429 33.5735 22.5 34.2648C20.9572 33.5735 19.42 32.7926 17.9157 31.925C16.4064 31.0553 14.9579 30.1318 13.5907 29.1797C13.4236 27.509 13.3343 25.7767 13.3343 24C13.3343 22.2233 13.4264 20.4881 13.5907 18.8203C14.9579 17.8682 16.4036 16.9447 17.9157 16.075C19.42 15.2074 20.9572 14.4265 22.4972 13.7352C24.04 14.4265 25.5779 15.2074 27.0814 16.075C28.5907 16.9447 30.0393 17.8682 31.4036 18.8203C31.5707 20.491 31.66 22.2254 31.66 24C31.66 25.7767 31.5679 27.509 31.4036 29.1797C30.0393 30.1318 28.5936 31.0524 27.0843 31.925ZM31.2472 30.5903C30.9572 32.8492 30.5193 34.9648 29.9693 36.8733C27.98 36.3833 25.9072 35.6977 23.825 34.8358C25.1036 34.234 26.37 33.5735 27.6143 32.8542C28.8786 32.1299 30.0864 31.3684 31.2472 30.5903ZM21.175 34.8358C19.0929 35.6977 17.02 36.3833 15.0307 36.8733C14.4807 34.9619 14.0429 32.8492 13.7529 30.5875C14.9136 31.3655 16.1214 32.1271 17.3857 32.8542C18.6272 33.5735 19.8964 34.234 21.175 34.8358ZM12.4329 28.3487C10.505 26.933 8.7643 25.4636 7.27144 24C8.76644 22.5335 10.5079 21.0641 12.4357 19.6485C12.3272 21.0562 12.2686 22.5084 12.2686 24C12.2657 25.4916 12.3243 26.9438 12.4329 28.3487ZM13.7529 17.4097C14.0429 15.1508 14.4807 13.0352 15.0307 11.1267C17.02 11.6167 19.0929 12.3023 21.175 13.1642C19.8964 13.766 18.63 14.4265 17.3857 15.1458C16.1214 15.8701 14.9136 16.6316 13.7529 17.4097ZM23.8279 13.1642C25.9093 12.3052 27.9829 11.6167 29.9722 11.1267C30.5214 13.0352 30.96 15.1508 31.25 17.4097C30.0893 16.6316 28.8814 15.8701 27.62 15.1429C26.3729 14.4265 25.1036 13.7631 23.8279 13.1642ZM32.5672 19.6485C34.495 21.0641 36.2357 22.5335 37.7314 24C36.2357 25.4665 34.495 26.9359 32.5672 28.3515C32.6757 26.9438 32.7343 25.4916 32.7343 24.0029C32.7343 22.5084 32.6757 21.0562 32.5672 19.6485ZM22.5 1.43284C25.36 1.43284 27.9607 4.8609 29.6572 10.1001C27.3379 10.6732 24.9164 11.5071 22.5 12.5624C20.0836 11.5071 17.6622 10.6732 15.3429 10.1001C17.0393 4.8609 19.64 1.43284 22.5 1.43284ZM2.07001 12.7164C2.98858 11.1296 5.29287 10.2562 8.56573 10.2562C10.2179 10.2562 12.0314 10.469 13.9372 10.8752C13.3093 13.0832 12.8379 15.557 12.5586 18.2264C10.2707 19.8441 8.22858 21.537 6.50358 23.2306C4.05716 20.6866 2.38573 18.1934 1.81644 16.0578C1.46787 14.7396 1.55144 13.6148 2.07001 12.7164ZM8.56858 37.7438C5.29573 37.7438 2.98858 36.8705 2.07287 35.2836C1.5543 34.3852 1.47073 33.2604 1.82216 31.9422C2.39144 29.8094 4.06287 27.3134 6.5093 24.7694C8.23358 26.4631 10.2764 28.1559 12.5643 29.7736C12.8429 32.4401 13.315 34.9168 13.9429 37.1248C12.0343 37.5281 10.2207 37.7438 8.56858 37.7438ZM22.5 46.5672C19.64 46.5672 17.0393 43.1391 15.3429 37.8999C17.6622 37.3268 20.0836 36.4929 22.5 35.4376C24.9164 36.4929 27.3379 37.3268 29.6572 37.8999C27.9607 43.1391 25.36 46.5672 22.5 46.5672ZM42.93 35.2836C42.0114 36.8705 39.7072 37.7438 36.4343 37.7438C34.7822 37.7438 32.9686 37.531 31.06 37.1248C31.6879 34.9168 32.1593 32.4401 32.4386 29.7736C34.7264 28.1559 36.7693 26.4631 38.4936 24.7694C40.94 27.3106 42.6114 29.8066 43.1807 31.9394C43.5322 33.2604 43.4486 34.3852 42.93 35.2836Z" fill="black"/>
<path fill-rule="evenodd" clip-rule="evenodd" d="M22.5 27.5176C20.5579 27.5176 18.9786 25.9393 18.9786 24C18.9786 22.0607 20.5579 20.4824 22.5 20.4824C24.4421 20.4824 26.0186 22.0607 26.0186 24C26.0186 25.9393 24.4421 27.5176 22.5 27.5176ZM22.5 21.557C21.1493 21.557 20.05 22.6539 20.05 24C20.05 25.349 21.1493 26.443 22.5 26.443C23.8507 26.443 24.9471 25.3462 24.9471 24C24.9471 22.651 23.8507 21.557 22.5 21.557Z" fill="black"/>
<path d="M75.024 27.992C74.576 29.336 73.792 30.384 72.672 31.136C71.568 31.872 70.24 32.24 68.688 32.24C67.248 32.24 65.984 31.912 64.896 31.256C63.808 30.584 62.968 29.632 62.376 28.4C61.784 27.168 61.488 25.728 61.488 24.08C61.488 22.432 61.784 20.992 62.376 19.76C62.968 18.528 63.808 17.584 64.896 16.928C65.984 16.256 67.24 15.92 68.664 15.92C71.832 15.92 73.88 17.224 74.808 19.832L73.632 20.384C73.264 19.264 72.672 18.424 71.856 17.864C71.056 17.304 70.016 17.024 68.736 17.024C67.552 17.024 66.504 17.312 65.592 17.888C64.696 18.448 64 19.264 63.504 20.336C63.008 21.392 62.76 22.64 62.76 24.08C62.76 25.52 63 26.776 63.48 27.848C63.976 28.904 64.664 29.72 65.544 30.296C66.44 30.856 67.488 31.136 68.688 31.136C69.968 31.136 71.056 30.824 71.952 30.2C72.848 29.576 73.472 28.688 73.824 27.536L75.024 27.992ZM83.0175 19.76C84.7935 19.76 86.1855 20.32 87.1935 21.44C88.2175 22.544 88.7295 24.064 88.7295 26C88.7295 27.936 88.2175 29.464 87.1935 30.584C86.1855 31.688 84.7935 32.24 83.0175 32.24C81.2415 32.24 79.8415 31.688 78.8175 30.584C77.8095 29.464 77.3055 27.936 77.3055 26C77.3055 24.064 77.8095 22.544 78.8175 21.44C79.8415 20.32 81.2415 19.76 83.0175 19.76ZM83.0175 20.792C81.6095 20.792 80.5055 21.256 79.7055 22.184C78.9055 23.112 78.5055 24.384 78.5055 26C78.5055 27.616 78.9055 28.888 79.7055 29.816C80.5055 30.744 81.6095 31.208 83.0175 31.208C84.4255 31.208 85.5295 30.744 86.3295 29.816C87.1295 28.888 87.5295 27.616 87.5295 26C87.5295 24.384 87.1295 23.112 86.3295 22.184C85.5295 21.256 84.4255 20.792 83.0175 20.792ZM98.3738 30.776C99.5738 30.776 100.518 31.024 101.206 31.52C101.894 32.016 102.238 32.68 102.238 33.512C102.238 34.232 101.99 34.864 101.494 35.408C101.014 35.968 100.342 36.4 99.4778 36.704C98.6138 37.008 97.6298 37.16 96.5258 37.16C94.7178 37.16 93.3338 36.864 92.3738 36.272C91.4138 35.696 90.9338 34.928 90.9338 33.968C90.9338 33.344 91.1258 32.808 91.5098 32.36C91.8938 31.912 92.4218 31.592 93.0938 31.4C92.6138 31.192 92.2298 30.904 91.9418 30.536C91.6698 30.168 91.5338 29.76 91.5338 29.312C91.5338 28.736 91.7178 28.248 92.0858 27.848C92.4698 27.448 92.9818 27.16 93.6217 26.984C92.9658 26.648 92.4618 26.2 92.1098 25.64C91.7578 25.064 91.5818 24.408 91.5818 23.672C91.5818 22.488 92.0218 21.544 92.9018 20.84C93.7978 20.12 94.9818 19.76 96.4538 19.76C97.4778 19.76 98.3818 19.944 99.1658 20.312C99.2618 19.544 99.5818 18.936 100.126 18.488C100.67 18.024 101.35 17.792 102.166 17.792L102.454 18.848C101.702 18.848 101.11 19.016 100.678 19.352C100.246 19.688 99.9978 20.168 99.9338 20.792C100.846 21.528 101.302 22.488 101.302 23.672C101.302 24.856 100.854 25.808 99.9578 26.528C99.0778 27.248 97.9098 27.608 96.4538 27.608C95.9578 27.608 95.4138 27.552 94.8218 27.44C94.1498 27.52 93.6218 27.72 93.2378 28.04C92.8698 28.344 92.6858 28.712 92.6858 29.144C92.6858 29.656 92.9018 30.056 93.3338 30.344C93.7658 30.632 94.4138 30.776 95.2778 30.776H98.3738ZM92.7818 23.672C92.7818 24.568 93.1098 25.28 93.7658 25.808C94.4218 26.336 95.3178 26.6 96.4538 26.6C97.5738 26.6 98.4618 26.336 99.1178 25.808C99.7738 25.28 100.102 24.568 100.102 23.672C100.102 22.776 99.7738 22.072 99.1178 21.56C98.4618 21.032 97.5738 20.768 96.4538 20.768C95.3338 20.768 94.4378 21.032 93.7658 21.56C93.1098 22.072 92.7818 22.776 92.7818 23.672ZM96.6458 36.152C98.0058 36.152 99.0938 35.912 99.9098 35.432C100.742 34.968 101.158 34.376 101.158 33.656C101.158 33.08 100.894 32.624 100.366 32.288C99.8538 31.968 99.1018 31.808 98.1098 31.808H95.0138C94.1018 31.808 93.3738 31.984 92.8298 32.336C92.3018 32.704 92.0378 33.184 92.0378 33.776C92.0378 34.512 92.4378 35.088 93.2378 35.504C94.0378 35.936 95.1738 36.152 96.6458 36.152ZM110.197 19.76C111.573 19.76 112.677 20.144 113.509 20.912C114.357 21.68 114.781 22.784 114.781 24.224V32H113.581V24.608C113.581 23.328 113.269 22.376 112.645 21.752C112.021 21.128 111.165 20.816 110.077 20.816C109.309 20.816 108.597 20.992 107.941 21.344C107.285 21.696 106.757 22.208 106.357 22.88C105.973 23.552 105.781 24.336 105.781 25.232V32H104.581V20H105.661L105.709 22.424C106.093 21.56 106.677 20.904 107.461 20.456C108.261 19.992 109.173 19.76 110.197 19.76ZM119.525 17.672C119.221 17.672 118.973 17.584 118.781 17.408C118.605 17.216 118.517 16.968 118.517 16.664C118.517 16.36 118.605 16.12 118.781 15.944C118.973 15.752 119.221 15.656 119.525 15.656C119.829 15.656 120.069 15.752 120.245 15.944C120.437 16.12 120.533 16.36 120.533 16.664C120.533 16.968 120.437 17.216 120.245 17.408C120.069 17.584 119.829 17.672 119.525 17.672ZM120.125 32H118.925V20H120.125V32ZM131.033 31.232C130.713 31.552 130.321 31.8 129.857 31.976C129.393 32.152 128.881 32.24 128.321 32.24C127.345 32.24 126.577 31.976 126.017 31.448C125.473 30.904 125.201 30.088 125.201 29V21.032H122.801V20H125.201V17L126.401 16.664V20H130.913V21.032H126.401V28.832C126.401 29.584 126.577 30.16 126.929 30.56C127.297 30.944 127.825 31.136 128.513 31.136C129.313 31.136 130.009 30.84 130.601 30.248L131.033 31.232ZM134.056 17.672C133.752 17.672 133.504 17.584 133.312 17.408C133.136 17.216 133.048 16.968 133.048 16.664C133.048 16.36 133.136 16.12 133.312 15.944C133.504 15.752 133.752 15.656 134.056 15.656C134.36 15.656 134.6 15.752 134.776 15.944C134.968 16.12 135.064 16.36 135.064 16.664C135.064 16.968 134.968 17.216 134.776 17.408C134.6 17.584 134.36 17.672 134.056 17.672ZM134.656 32H133.456V20H134.656V32ZM148.445 20L143.429 32H142.229L137.213 20H138.557L142.853 30.776L147.173 20H148.445ZM160.807 25.712C160.807 25.984 160.792 26.248 160.76 26.504H151.232C151.312 27.976 151.744 29.128 152.528 29.96C153.328 30.776 154.392 31.184 155.72 31.184C156.664 31.184 157.472 30.992 158.144 30.608C158.832 30.224 159.328 29.68 159.632 28.976L160.64 29.504C160.192 30.384 159.552 31.064 158.72 31.544C157.888 32.008 156.888 32.24 155.72 32.24C153.944 32.24 152.552 31.688 151.544 30.584C150.552 29.48 150.056 27.952 150.056 26C150.056 24.048 150.536 22.52 151.496 21.416C152.472 20.312 153.832 19.76 155.576 19.76C157.208 19.76 158.488 20.304 159.416 21.392C160.344 22.48 160.807 23.92 160.807 25.712ZM155.576 20.816C154.28 20.816 153.256 21.224 152.504 22.04C151.752 22.84 151.328 23.968 151.232 25.424H159.68C159.6 23.984 159.2 22.856 158.48 22.04C157.776 21.224 156.808 20.816 155.576 20.816Z" fill="#363C44"/>
</svg>
